<svg width="66" height="36" viewBox="0 0 66 36" fill="none" xmlns="http://www.w3.org/2000/svg">
<g filter="url(#filter0_d)">
<rect x="4" y="2" width="58" height="28" rx="10" fill="#37CC4A"/>
<path d="M22.7032 13.6151C22.2372 13.234 21.5771 13.1121 21.0214 13.3043C20.8725 13.3559 20.7342 13.4282 20.6103 13.5193C20.2944 13.7517 19.593 14.4494 19.0372 15.1399V9.81739C19.0372 9.36499 18.8512 8.92282 18.527 8.60412C18.2051 8.28777 17.7823 8.11715 17.3386 8.12544C17.1371 8.12904 16.9441 8.169 16.7657 8.23882V7.71895C16.7657 7.22659 16.5633 6.74529 16.2102 6.39824C15.8602 6.05424 15.4023 5.86883 14.918 5.87768C13.9523 5.89441 13.1639 6.67933 13.135 7.63889C12.9259 7.54404 12.6987 7.49081 12.4635 7.48376C11.9729 7.46938 11.4871 7.65922 11.1309 8.00502C10.7821 8.34363 10.5899 8.79064 10.5899 9.26239L10.5886 9.76651C10.4381 9.71701 10.2775 9.68991 10.1106 9.68991C9.26848 9.68991 8.58337 10.375 8.58337 11.217L8.58393 18.9541L8.58517 18.9907C8.65555 20.0061 8.86806 20.8755 9.21704 21.5749C9.54418 22.2305 10.0006 22.7584 10.5736 23.1439C11.7011 23.9027 13.094 24 14.1814 24C16.3169 24 18.2381 22.9383 19.1989 21.2282C19.3158 21.0399 19.6237 20.5557 19.9562 20.0335C20.28 19.5247 20.5813 19.0558 20.8469 18.6421C20.9929 18.4147 21.1258 18.2078 21.2411 18.0275C21.6707 17.3557 22.1285 16.7044 22.6019 16.0914C22.7775 15.8641 22.8316 15.8025 22.8439 15.7889C23.0655 15.5471 23.2051 15.2511 23.2477 14.9326C23.3148 14.4331 23.1162 13.9527 22.7032 13.6151ZM22.1942 14.7916C22.1805 14.8934 22.1341 14.9899 22.0602 15.0706C22.0216 15.1128 21.9526 15.193 21.7607 15.4416C21.2681 16.0793 20.7919 16.7566 20.3454 17.4549C20.2304 17.6347 20.0981 17.8407 19.9523 18.0676C19.6862 18.4822 19.3845 18.9521 19.0594 19.4626C18.7191 19.9971 18.4042 20.4923 18.2889 20.6785L18.2768 20.699C17.5057 22.0794 15.9366 22.9369 14.1816 22.9369C13.2451 22.9369 12.056 22.8602 11.1671 22.262C10.2601 21.6517 9.76291 20.5636 9.64704 18.9354L9.64649 11.2172C9.64649 10.9613 9.85472 10.753 10.1106 10.753C10.3681 10.753 10.5776 10.9613 10.5776 11.2172V14.1126C10.5776 14.1212 10.5785 14.1294 10.5788 14.138C10.5794 14.1474 10.5794 14.157 10.5803 14.1664C10.5812 14.1748 10.5828 14.183 10.5841 14.1913C10.5854 14.2005 10.5864 14.2099 10.5882 14.2192C10.59 14.2275 10.5925 14.2356 10.5946 14.2438C10.5968 14.2525 10.5986 14.2615 10.6013 14.2701C10.6038 14.2784 10.6072 14.2864 10.6102 14.2944C10.6131 14.3026 10.6157 14.3109 10.6192 14.3189C10.6225 14.3269 10.6265 14.3345 10.6302 14.3422C10.634 14.35 10.6374 14.3579 10.6414 14.3655C10.6455 14.3729 10.6503 14.3801 10.6547 14.3875C10.6591 14.3948 10.6633 14.4022 10.668 14.4093C10.6728 14.4163 10.6782 14.423 10.6833 14.4298C10.6885 14.4367 10.6932 14.4437 10.6985 14.4502C10.7039 14.4567 10.7099 14.4627 10.7154 14.4689C10.7212 14.4752 10.7268 14.482 10.7328 14.4881C10.7388 14.4939 10.745 14.4992 10.7512 14.5048C10.7576 14.5106 10.7638 14.5169 10.7706 14.5224C10.7769 14.5277 10.7837 14.5324 10.7904 14.5373C10.7974 14.5426 10.8042 14.5481 10.8114 14.5531C10.8181 14.5577 10.8253 14.5615 10.8322 14.5657C10.8399 14.5704 10.8473 14.5754 10.8552 14.5798C10.8624 14.5836 10.87 14.5868 10.8773 14.5904C10.8853 14.5944 10.8934 14.5986 10.9017 14.6022C10.9093 14.6055 10.9174 14.608 10.9252 14.6109C10.9336 14.6139 10.9419 14.6174 10.9505 14.6202C10.9586 14.6226 10.9672 14.6244 10.9755 14.6266C10.9842 14.6289 10.9926 14.6315 11.0013 14.6333C11.0102 14.6351 11.019 14.6361 11.0279 14.6374C11.0367 14.6387 11.0453 14.6405 11.0542 14.6414C11.063 14.6423 11.0721 14.6424 11.0811 14.6428C11.09 14.6432 11.0988 14.6442 11.1078 14.6442C11.1082 14.6442 11.1088 14.6442 11.1092 14.6442C11.1276 14.6442 11.1457 14.6432 11.1635 14.6414C11.1713 14.6408 11.1789 14.6391 11.1866 14.638C11.1964 14.6366 11.2065 14.6355 11.2162 14.6334C11.2264 14.6314 11.2363 14.6284 11.2462 14.6258C11.2531 14.6239 11.2603 14.6225 11.2671 14.6204C11.2782 14.617 11.2889 14.6127 11.2997 14.6085C11.305 14.6065 11.3106 14.6048 11.3159 14.6026C11.3267 14.598 11.3369 14.5926 11.3473 14.5875C11.3523 14.585 11.3574 14.583 11.3624 14.5803C11.372 14.5751 11.3812 14.569 11.3904 14.5632C11.3957 14.56 11.4011 14.5571 11.406 14.5536C11.4146 14.548 11.4228 14.5415 11.4309 14.5351C11.4363 14.5311 11.4419 14.5274 11.447 14.5231C11.4546 14.517 11.4615 14.5101 11.4687 14.5035C11.4741 14.4986 11.4796 14.4939 11.4849 14.4889C11.4915 14.4823 11.4974 14.4751 11.5037 14.4682C11.5088 14.4625 11.5143 14.457 11.5191 14.4512C11.5247 14.4444 11.5297 14.4372 11.5349 14.4302C11.5399 14.4235 11.5451 14.4172 11.5497 14.4103C11.5545 14.4032 11.5586 14.3959 11.563 14.3886C11.5674 14.3812 11.5722 14.374 11.5764 14.3666C11.5804 14.3591 11.5837 14.3514 11.5875 14.3438C11.5912 14.3359 11.5953 14.3281 11.5988 14.3201C11.6021 14.3124 11.6046 14.3042 11.6075 14.2963C11.6107 14.288 11.614 14.2799 11.6168 14.2713C11.6193 14.2632 11.621 14.2549 11.6231 14.2466C11.6253 14.2378 11.628 14.2293 11.6299 14.2204C11.6316 14.2121 11.6325 14.2034 11.6338 14.1948C11.6353 14.1859 11.637 14.1769 11.6379 14.1677C11.6389 14.1592 11.6389 14.1503 11.6393 14.1416C11.6399 14.1324 11.6408 14.1234 11.6408 14.1141L11.6531 9.26378C11.6531 9.08071 11.7307 8.90457 11.8714 8.76782C12.0227 8.62112 12.2273 8.5401 12.4321 8.54646C12.8157 8.55794 13.1277 8.89157 13.1277 9.29102L13.1338 14.0845C13.1338 14.0942 13.1348 14.1036 13.1353 14.113C13.1357 14.1214 13.1357 14.1301 13.1366 14.1384C13.1375 14.1484 13.1395 14.1579 13.141 14.1676C13.1422 14.1755 13.1431 14.1835 13.1446 14.1913C13.1468 14.2018 13.1498 14.212 13.1526 14.2222C13.1544 14.2289 13.1558 14.2356 13.1577 14.2421C13.1612 14.2532 13.1656 14.264 13.1698 14.2748C13.1718 14.2802 13.1733 14.2857 13.1756 14.2909C13.1805 14.3024 13.1862 14.3136 13.1919 14.3247C13.1941 14.3288 13.1957 14.3333 13.198 14.3373C13.2042 14.3487 13.2112 14.3597 13.2181 14.3704C13.2204 14.374 13.2223 14.3776 13.2246 14.3811C13.232 14.392 13.24 14.4022 13.248 14.4125C13.2505 14.4157 13.2527 14.419 13.2552 14.422C13.2642 14.4329 13.2739 14.4432 13.2837 14.4533C13.2858 14.4555 13.2874 14.4577 13.2895 14.4598C13.2996 14.4699 13.3104 14.4793 13.3213 14.4885C13.3234 14.4903 13.3252 14.4923 13.3272 14.4941C13.3382 14.503 13.3495 14.5112 13.361 14.5192C13.3635 14.521 13.3657 14.523 13.3682 14.5246C13.3798 14.5325 13.3919 14.5395 13.4041 14.5465C13.4067 14.548 13.4092 14.5498 13.412 14.5513C13.4247 14.5581 13.4378 14.5642 13.4511 14.5701C13.4536 14.5712 13.456 14.5726 13.4584 14.5737C13.472 14.5794 13.486 14.5842 13.5001 14.5889C13.5026 14.5896 13.5048 14.5907 13.5073 14.5915C13.5212 14.5958 13.5355 14.5993 13.5497 14.6025C13.5526 14.603 13.5554 14.604 13.5583 14.6047C13.5928 14.6117 13.6287 14.6154 13.6653 14.6154C13.6656 14.6154 13.6658 14.6154 13.6661 14.6154C13.6754 14.6154 13.6845 14.6145 13.6936 14.6141C13.7025 14.6135 13.7113 14.6135 13.72 14.6127C13.7297 14.6116 13.739 14.6098 13.7485 14.6083C13.7565 14.607 13.7648 14.6062 13.7729 14.6045C13.7824 14.6026 13.7917 14.5998 13.8011 14.5973C13.8087 14.5953 13.8163 14.5937 13.8237 14.5914C13.8333 14.5885 13.8424 14.5848 13.8517 14.5812C13.8586 14.5785 13.8658 14.5765 13.8726 14.5736C13.8821 14.5694 13.8914 14.5646 13.9006 14.56C13.9067 14.557 13.9131 14.5543 13.919 14.5512C13.9281 14.5462 13.9368 14.5404 13.9457 14.535C13.9514 14.5314 13.9573 14.5282 13.9628 14.5245C13.9713 14.5188 13.9792 14.5124 13.9872 14.5062C13.9927 14.5021 13.9984 14.4982 14.0038 14.4938C14.0114 14.4876 14.0186 14.4805 14.0259 14.4737C14.031 14.469 14.0364 14.4645 14.0415 14.4595C14.0483 14.4526 14.0546 14.4451 14.0611 14.4379C14.066 14.4325 14.0711 14.4274 14.0758 14.4217C14.0816 14.4146 14.0869 14.4069 14.0923 14.3996C14.097 14.3933 14.1019 14.3872 14.1064 14.3808C14.1113 14.3735 14.1155 14.3657 14.12 14.3581C14.1243 14.3511 14.129 14.3442 14.1329 14.337C14.1371 14.3294 14.1404 14.3214 14.1441 14.3136C14.1478 14.3059 14.152 14.2984 14.1553 14.2904C14.1585 14.2828 14.1611 14.2748 14.1639 14.2669C14.1671 14.2585 14.1705 14.2502 14.1731 14.2416C14.1756 14.2333 14.1774 14.2249 14.1796 14.2164C14.1818 14.2078 14.1845 14.1994 14.1861 14.1907C14.1879 14.182 14.1889 14.173 14.1903 14.1643C14.1915 14.1554 14.1933 14.1467 14.1942 14.1379C14.1951 14.1289 14.1951 14.1198 14.1955 14.1106C14.1961 14.1017 14.1969 14.0929 14.1969 14.0838V7.69351C14.1969 7.28535 14.5288 6.94771 14.9365 6.94065C15.1332 6.93789 15.3202 7.01393 15.4652 7.15649C15.6162 7.30484 15.7028 7.50989 15.7028 7.71895V14.1131C15.7028 14.1228 15.7037 14.1322 15.7043 14.1418C15.7047 14.1502 15.7047 14.1588 15.7055 14.1672C15.7065 14.1766 15.7084 14.1857 15.7098 14.195C15.7112 14.2034 15.712 14.2119 15.7137 14.22C15.7156 14.2293 15.7184 14.2383 15.7207 14.2474C15.7228 14.2553 15.7243 14.2632 15.7268 14.2709C15.7299 14.2807 15.7337 14.2903 15.7373 14.2998C15.7398 14.3064 15.7419 14.3132 15.7447 14.3197C15.7489 14.3297 15.7539 14.3392 15.7588 14.3489C15.7615 14.3545 15.764 14.3605 15.7671 14.3662C15.7723 14.376 15.7784 14.3852 15.7843 14.3946C15.7875 14.3996 15.7903 14.405 15.7937 14.41C15.8001 14.4194 15.8072 14.4284 15.8142 14.4374C15.8177 14.4418 15.8207 14.4465 15.8243 14.4508C15.832 14.4603 15.8406 14.4692 15.849 14.4782C15.8524 14.4815 15.8553 14.4852 15.8586 14.4885C15.8673 14.4974 15.8767 14.5054 15.8861 14.5135C15.8896 14.5166 15.8927 14.5199 15.8963 14.5228C15.9068 14.5315 15.9179 14.5394 15.929 14.5473C15.9317 14.5492 15.9344 14.5514 15.9373 14.5535C15.9491 14.5615 15.9616 14.5689 15.9742 14.5759C15.9765 14.5772 15.9786 14.5788 15.981 14.5801C15.9948 14.5875 16.0089 14.5942 16.0234 14.6005C16.0248 14.6011 16.026 14.6019 16.0274 14.6025C16.0425 14.6088 16.058 14.6143 16.0737 14.6193C16.0746 14.6197 16.0754 14.62 16.0764 14.6203C16.1094 14.6307 16.1438 14.6377 16.1794 14.6414C16.1796 14.6414 16.1798 14.6414 16.1801 14.6414C16.1979 14.6432 16.216 14.6442 16.2344 14.6442C16.2345 14.6442 16.2347 14.6442 16.2349 14.6442C16.2443 14.6442 16.2536 14.6432 16.263 14.6428C16.2717 14.6423 16.2804 14.6423 16.289 14.6414C16.2988 14.6405 16.3084 14.6385 16.318 14.637C16.3259 14.6358 16.3339 14.6349 16.3418 14.6333C16.3522 14.6312 16.3621 14.6282 16.3722 14.6255C16.379 14.6237 16.3861 14.6224 16.3927 14.6203C16.4035 14.6168 16.4139 14.6127 16.4244 14.6087C16.43 14.6065 16.4358 14.6047 16.4415 14.6023C16.4522 14.5978 16.4624 14.5925 16.4728 14.5872C16.4777 14.5848 16.483 14.5827 16.488 14.5799C16.4981 14.5744 16.5077 14.5682 16.5176 14.5619C16.5223 14.559 16.5271 14.5564 16.5318 14.5532C16.5418 14.5466 16.551 14.5391 16.5604 14.5318C16.5644 14.5288 16.5687 14.5259 16.5727 14.5227C16.582 14.5149 16.5907 14.5065 16.5995 14.4982C16.6031 14.4949 16.607 14.4918 16.6103 14.4884C16.6189 14.4798 16.6269 14.4707 16.6348 14.4614C16.6381 14.4578 16.6416 14.4544 16.6448 14.4506C16.6524 14.4414 16.6593 14.4316 16.6662 14.4219C16.6691 14.4177 16.6724 14.4139 16.6753 14.4097C16.6818 14.4 16.6876 14.3899 16.6934 14.3798C16.6962 14.3751 16.6994 14.3707 16.702 14.3659C16.7075 14.3557 16.7122 14.345 16.7171 14.3344C16.7194 14.3294 16.7222 14.3245 16.7243 14.3194C16.7287 14.3091 16.7323 14.2983 16.736 14.2876C16.7379 14.282 16.7404 14.2764 16.7422 14.2705C16.7453 14.2604 16.7476 14.2497 16.7503 14.2394C16.7518 14.2327 16.7538 14.2262 16.7552 14.2196C16.7573 14.2094 16.7586 14.1987 16.7601 14.1884C16.761 14.1812 16.7626 14.1741 16.7633 14.1668C16.7644 14.1571 16.7644 14.1471 16.7648 14.1372C16.7652 14.129 16.766 14.121 16.766 14.1126V9.72517C16.8006 9.42859 17.0524 9.19368 17.3572 9.18842C17.5139 9.1858 17.6652 9.24746 17.782 9.36236C17.9042 9.48237 17.9743 9.64829 17.9743 9.81739V16.0917L17.9746 16.1155C17.9775 16.4599 18.2037 16.7509 18.5373 16.8397C18.8687 16.9278 19.2074 16.7886 19.3816 16.4902L19.3849 16.4842C19.8016 15.7561 20.9155 14.6149 21.2407 14.3757C21.2783 14.3479 21.3216 14.3256 21.3693 14.3091C21.5811 14.2359 21.8467 14.2878 22.0306 14.4382C22.1171 14.5091 22.216 14.628 22.1942 14.7916Z" fill="white"/>
<path d="M31.125 9.33594H33.3223V16.7188C33.3223 17.3975 33.1709 17.998 32.8682 18.5205C32.5703 19.0381 32.1479 19.4385 31.6011 19.7217C31.0542 20.0049 30.4365 20.1465 29.748 20.1465C28.6201 20.1465 27.7412 19.8608 27.1113 19.2896C26.4814 18.7134 26.1665 17.9004 26.1665 16.8506H28.3784C28.3784 17.373 28.4883 17.7588 28.708 18.0078C28.9277 18.2568 29.2744 18.3813 29.748 18.3813C30.168 18.3813 30.5024 18.2373 30.7515 17.9492C31.0005 17.6611 31.125 17.251 31.125 16.7188V9.33594ZM34.7358 15.9644C34.7358 15.1782 34.8872 14.4775 35.1899 13.8623C35.4927 13.2471 35.9272 12.771 36.4937 12.4341C37.0649 12.0972 37.7266 11.9287 38.4785 11.9287C39.5479 11.9287 40.4194 12.2559 41.0933 12.9102C41.772 13.5645 42.1504 14.4531 42.2285 15.5762L42.2432 16.1182C42.2432 17.334 41.9038 18.3105 41.2251 19.0479C40.5464 19.7803 39.6357 20.1465 38.4932 20.1465C37.3506 20.1465 36.4375 19.7803 35.7539 19.0479C35.0752 18.3154 34.7358 17.3193 34.7358 16.0596V15.9644ZM36.8525 16.1182C36.8525 16.8701 36.9941 17.4463 37.2773 17.8467C37.5605 18.2422 37.9658 18.4399 38.4932 18.4399C39.0059 18.4399 39.4062 18.2446 39.6943 17.854C39.9824 17.4585 40.1265 16.8286 40.1265 15.9644C40.1265 15.2271 39.9824 14.6558 39.6943 14.2505C39.4062 13.8452 39.001 13.6426 38.4785 13.6426C37.9609 13.6426 37.5605 13.8452 37.2773 14.2505C36.9941 14.6509 36.8525 15.2734 36.8525 16.1182ZM45.7808 20H43.6567V12.0752H45.7808V20ZM43.5322 10.0244C43.5322 9.70703 43.6372 9.4458 43.8472 9.24072C44.062 9.03564 44.3525 8.93311 44.7188 8.93311C45.0801 8.93311 45.3682 9.03564 45.583 9.24072C45.7979 9.4458 45.9053 9.70703 45.9053 10.0244C45.9053 10.3467 45.7954 10.6104 45.5757 10.8154C45.3608 11.0205 45.0752 11.123 44.7188 11.123C44.3623 11.123 44.0742 11.0205 43.8545 10.8154C43.6396 10.6104 43.5322 10.3467 43.5322 10.0244ZM49.4795 12.0752L49.5454 12.9907C50.1118 12.2827 50.8711 11.9287 51.8232 11.9287C52.6631 11.9287 53.2881 12.1753 53.6982 12.6685C54.1084 13.1616 54.3184 13.8989 54.3281 14.8804V20H52.2114V14.9316C52.2114 14.4824 52.1138 14.1577 51.9185 13.9575C51.7231 13.7524 51.3984 13.6499 50.9443 13.6499C50.3486 13.6499 49.9019 13.9038 49.604 14.4116V20H47.4873V12.0752H49.4795Z" fill="white"/>
</g>
<defs>
<filter id="filter0_d" x="0" y="0" width="66" height="36" filterUnits="userSpaceOnUse" color-interpolation-filters="sRGB">
<feFlood flood-opacity="0" result="BackgroundImageFix"/>
<feColorMatrix in="SourceAlpha" type="matrix" values="0 0 0 0 0 0 0 0 0 0 0 0 0 0 0 0 0 0 127 0"/>
<feOffset dy="2"/>
<feGaussianBlur stdDeviation="2"/>
<feColorMatrix type="matrix" values="0 0 0 0 0 0 0 0 0 0 0 0 0 0 0 0 0 0 0.15 0"/>
<feBlend mode="normal" in2="BackgroundImageFix" result="effect1_dropShadow"/>
<feBlend mode="normal" in="SourceGraphic" in2="effect1_dropShadow" result="shape"/>
</filter>
</defs>
</svg>
