<svg width="50" height="25" viewBox="0 0 50 25" fill="none" xmlns="http://www.w3.org/2000/svg">
<g filter="url(#filter0_d)">
<rect x="4" y="2" width="42" height="16.5" rx="4" fill="#37CC4A"/>
<path d="M18.9136 11.3213C18.9136 11.0723 18.8257 10.8818 18.6499 10.75C18.4741 10.6152 18.1577 10.4746 17.7007 10.3281C17.2437 10.1787 16.8818 10.0322 16.6152 9.88867C15.8887 9.49609 15.5254 8.96729 15.5254 8.30225C15.5254 7.95654 15.6221 7.64893 15.8154 7.37939C16.0117 7.10693 16.2915 6.89453 16.6548 6.74219C17.021 6.58984 17.4312 6.51367 17.8853 6.51367C18.3423 6.51367 18.7495 6.59717 19.1069 6.76416C19.4644 6.92822 19.7412 7.16113 19.9375 7.46289C20.1367 7.76465 20.2363 8.10742 20.2363 8.49121H18.918C18.918 8.19824 18.8257 7.97119 18.6411 7.81006C18.4565 7.646 18.1973 7.56396 17.8633 7.56396C17.541 7.56396 17.2905 7.63281 17.1118 7.77051C16.9331 7.90527 16.8438 8.08398 16.8438 8.30664C16.8438 8.51465 16.9478 8.68896 17.1558 8.82959C17.3667 8.97021 17.6758 9.10205 18.083 9.2251C18.833 9.45068 19.3794 9.73047 19.7222 10.0645C20.0649 10.3984 20.2363 10.8145 20.2363 11.3125C20.2363 11.8662 20.0269 12.3013 19.6079 12.6177C19.189 12.9312 18.625 13.0879 17.916 13.0879C17.4238 13.0879 16.9756 12.9985 16.5713 12.8198C16.167 12.6382 15.8579 12.3906 15.644 12.0771C15.4331 11.7637 15.3276 11.4004 15.3276 10.9873H16.6504C16.6504 11.6934 17.0723 12.0464 17.916 12.0464C18.2295 12.0464 18.4741 11.9834 18.6499 11.8574C18.8257 11.7285 18.9136 11.5498 18.9136 11.3213ZM22.5698 7.07617V8.24512H23.3828V9.17676H22.5698V11.5498C22.5698 11.7256 22.6035 11.8516 22.6709 11.9277C22.7383 12.0039 22.8672 12.042 23.0576 12.042C23.1982 12.042 23.3228 12.0317 23.4312 12.0112V12.9736C23.1821 13.0498 22.9258 13.0879 22.6621 13.0879C21.7715 13.0879 21.3174 12.6382 21.2998 11.7388V9.17676H20.6055V8.24512H21.2998V7.07617H22.5698ZM26.8457 13C26.7871 12.8857 26.7446 12.7437 26.7183 12.5737C26.4106 12.9165 26.0107 13.0879 25.5186 13.0879C25.0527 13.0879 24.666 12.9531 24.3584 12.6836C24.0537 12.4141 23.9014 12.0742 23.9014 11.6641C23.9014 11.1602 24.0874 10.7734 24.4595 10.5039C24.8345 10.2344 25.375 10.0981 26.0811 10.0952H26.6655V9.82275C26.6655 9.60303 26.6084 9.42725 26.4941 9.29541C26.3828 9.16357 26.2056 9.09766 25.9624 9.09766C25.7485 9.09766 25.5801 9.14893 25.457 9.25146C25.3369 9.354 25.2769 9.49463 25.2769 9.67334H24.0068C24.0068 9.39795 24.0918 9.14307 24.2617 8.90869C24.4316 8.67432 24.6719 8.49121 24.9824 8.35938C25.293 8.22461 25.6416 8.15723 26.0283 8.15723C26.6143 8.15723 27.0786 8.30518 27.4214 8.60107C27.7671 8.89404 27.9399 9.30713 27.9399 9.84033V11.9014C27.9429 12.3525 28.0059 12.6938 28.1289 12.9253V13H26.8457ZM25.7954 12.1167C25.9829 12.1167 26.1558 12.0757 26.314 11.9937C26.4722 11.9087 26.5894 11.7959 26.6655 11.6553V10.8379H26.1909C25.5552 10.8379 25.2168 11.0576 25.1758 11.4971L25.1714 11.5718C25.1714 11.73 25.2271 11.8604 25.3384 11.9629C25.4497 12.0654 25.6021 12.1167 25.7954 12.1167ZM31.5874 9.43604C31.4146 9.4126 31.2622 9.40088 31.1304 9.40088C30.6499 9.40088 30.335 9.56348 30.1855 9.88867V13H28.9155V8.24512H30.1152L30.1504 8.81201C30.4053 8.37549 30.7583 8.15723 31.2095 8.15723C31.3501 8.15723 31.4819 8.17627 31.605 8.21436L31.5874 9.43604ZM33.9429 7.07617V8.24512H34.7559V9.17676H33.9429V11.5498C33.9429 11.7256 33.9766 11.8516 34.0439 11.9277C34.1113 12.0039 34.2402 12.042 34.4307 12.042C34.5713 12.042 34.6958 12.0317 34.8042 12.0112V12.9736C34.5552 13.0498 34.2988 13.0879 34.0352 13.0879C33.1445 13.0879 32.6904 12.6382 32.6729 11.7388V9.17676H31.9785V8.24512H32.6729V7.07617H33.9429Z" fill="#FAFAFA"/>
</g>
<defs>
<filter id="filter0_d" x="0" y="0" width="50" height="24.5" filterUnits="userSpaceOnUse" color-interpolation-filters="sRGB">
<feFlood flood-opacity="0" result="BackgroundImageFix"/>
<feColorMatrix in="SourceAlpha" type="matrix" values="0 0 0 0 0 0 0 0 0 0 0 0 0 0 0 0 0 0 127 0"/>
<feOffset dy="2"/>
<feGaussianBlur stdDeviation="2"/>
<feColorMatrix type="matrix" values="0 0 0 0 0 0 0 0 0 0 0 0 0 0 0 0 0 0 0.25 0"/>
<feBlend mode="normal" in2="BackgroundImageFix" result="effect1_dropShadow"/>
<feBlend mode="normal" in="SourceGraphic" in2="effect1_dropShadow" result="shape"/>
</filter>
</defs>
</svg>
