<?xml version="1.0" encoding="utf-8"?>
<!-- Generator: Adobe Illustrator 16.0.0, SVG Export Plug-In . SVG Version: 6.00 Build 0)  -->
<!DOCTYPE svg PUBLIC "-//W3C//DTD SVG 1.1//EN" "http://www.w3.org/Graphics/SVG/1.1/DTD/svg11.dtd">
<svg version="1.1" id="Layer_1" xmlns="http://www.w3.org/2000/svg" xmlns:xlink="http://www.w3.org/1999/xlink" x="0px" y="0px"
	 width="100px" height="100px" viewBox="798.333 0 100 100" enable-background="new 798.333 0 100 100" xml:space="preserve">
<circle fill="none" stroke="#FFFFFF" stroke-width="0.99" stroke-miterlimit="10" cx="848.333" cy="50" r="49.5"/>
<g>
	<g>
		<path fill="#FFFFFF" d="M872.148,74.181c-1.924-4.634-3.684-9.297-5.134-14.104c-0.044-0.288-0.099-0.575-0.176-0.861
			c-1.397-5.188-2.793-10.377-4.19-15.565c3.692-1.643,7.034-4.266,9.788-7.132c1.016-1.06,1.299-2.725,0.517-4.011
			c-1.964-3.214-3.928-6.429-5.894-9.643c-2.222-3.635-7.947-0.312-5.716,3.34c1.517,2.477,3.028,4.954,4.544,7.433
			c-2.419,2.167-5.219,4.008-8.336,4.812c-0.167,0.043-0.312,0.108-0.459,0.169c-0.801-0.044-1.595,0.061-2.31,0.327
			c-0.454,0.172-0.862,0.388-1.228,0.636c-0.029-0.002-0.055-0.011-0.086-0.011c-5.604-0.115-10.601-1.906-15.286-4.924
			c-1.126-0.726-2.225-0.662-3.091-0.165c-3.386-4.308-4.398-6.184-4.694-6.861c1.41-2.649-0.003-7.433-2.401-10.459
			c-2.936-3.707-7.521-4.986-10.221-2.846c-2.699,2.138-2.506,6.894,0.43,10.601c2.389,3.018,6.703,5.482,9.602,4.74
			c0.627,0.502,2.425,2.121,5.857,6.42c-0.655,1.4-0.484,3.213,1.177,4.284c5.024,3.235,10.534,5.209,16.426,5.704
			c0.03,0.134,0.059,0.271,0.093,0.404c1.514,5.615,3.026,11.233,4.537,16.848c0,0.003,0.001,0.006,0.001,0.006
			c-4.063,3.193-7.924,6.696-12.319,9.414c-3.621,2.238-0.3,7.965,3.34,5.712c5.027-3.11,9.338-7.226,14.062-10.754
			c0.259-0.19,0.469-0.402,0.653-0.626c0.237-0.006,0.473-0.024,0.702-0.057c0.941,2.68,1.96,5.331,3.04,7.966
			c-2.982,3.321-5.691,6.868-7.974,10.713c-2.183,3.677,3.539,7.007,5.712,3.341c2.395-4.032,5.258-7.645,8.473-11.05
			c0.976-1.031,1.098-2.233,0.732-3.271C872.278,74.541,872.226,74.365,872.148,74.181z M819.114,24.195
			c-2.537-3.205-2.813-7.228-0.616-8.968c2.198-1.742,6.051-0.549,8.589,2.656c2.505,3.164,3.486,7.795,2.04,9.584l-1.148,0.91
			C825.905,29.374,821.62,27.357,819.114,24.195z M830.261,30.138c-0.299,0.236-0.844,0.044-1.217-0.426
			c-0.375-0.472-0.435-1.046-0.136-1.282c0.299-0.237,0.841-0.045,1.217,0.426C830.498,29.327,830.56,29.9,830.261,30.138z"/>
		<circle fill="#FFFFFF" cx="853.453" cy="30.547" r="6.013"/>
		<path fill="#FFFFFF" d="M837.174,18.539c0.102-0.075,0.192-0.157,0.271-0.245l7.541-3.548l-2.22-0.934l0.197-1.832l-2.128-0.813
			l0.229-1.79l-5.672,6.107c-0.107,0.046-0.215,0.107-0.317,0.182c-0.791,0.579-0.965,1.692-0.385,2.486
			C835.269,18.943,836.381,19.118,837.174,18.539z"/>
	</g>
</g>
</svg>
