<?xml version="1.0" encoding="iso-8859-1"?>
<!-- Generator: Adobe Illustrator 16.0.0, SVG Export Plug-In . SVG Version: 6.00 Build 0)  -->
<!DOCTYPE svg PUBLIC "-//W3C//DTD SVG 1.1//EN" "http://www.w3.org/Graphics/SVG/1.1/DTD/svg11.dtd">
<svg version="1.1" id="Layer_1" xmlns="http://www.w3.org/2000/svg" xmlns:xlink="http://www.w3.org/1999/xlink" x="0px" y="0px"
	 width="100px" height="100px" viewBox="0 0 100 100" style="enable-background:new 0 0 100 100;" xml:space="preserve">
<g>
	<path style="fill:none;stroke:#BBBDBF;stroke-width:0;stroke-miterlimit:10;" d="M99.498,49.998
		c0,27.338-22.162,49.502-49.5,49.502c-27.336,0-49.496-22.164-49.496-49.502C0.502,22.662,22.662,0.5,49.998,0.5
		C77.336,0.5,99.498,22.662,99.498,49.998z"/>
</g>
<path style="fill-rule:evenodd;clip-rule:evenodd;fill:#FFF;" d="M25.725,50.161c0,0.295-0.219,0.514-0.51,0.514h-9.324
	c-0.217,0-0.505-0.219-0.505-0.514V27.656c0-0.291,0.288-0.51,0.505-0.51h9.324c0.291,0,0.51,0.219,0.51,0.51v4.736h2.991v-6.41
	c0-1.093-0.804-1.895-1.827-1.895H14.217c-1.019,0-1.818,0.802-1.818,1.895v25.859c0,1.02,0.8,1.819,1.818,1.819h4.007v28.697
	c0,0.071,0,0.071,0,0.144h4.734c0-0.072,0-0.072,0-0.144V53.66h3.931c1.023,0,1.896-0.8,1.896-1.819v-9.179h-3.061V50.161z
	 M64.693,31.007c3.129-0.947,4.88-4.295,3.933-7.356c-1.02-3.132-4.299-4.88-7.43-3.858c-3.061,0.945-4.809,4.223-3.861,7.354
	C58.283,30.279,61.634,31.955,64.693,31.007L64.693,31.007z M90.331,53.369c-4.663-0.728-10.343-1.822-11.581-2.259
	c-0.654-0.436-4.37-4.149-4.37-4.149l-2.842-10.417c3.204,0.657,4.223,2.552,5.606,6.262c0.367,0.947,1.313,1.53,2.334,1.461
	c0.217,0,0.436-0.076,0.581-0.149c1.24-0.436,1.823-1.747,1.384-2.916c-3.932-12.308-17.116-9.246-17.116-9.246
	c-4.663,0.8-8.741,0-9.102-0.51c-0.438-0.51-0.802-3.568-2.479-7.213c-0.072-0.145-5.533-8.884-4.733,0.951
	c0.801,5.681,3.135,8.666,3.861,9.393c1.384,1.53,4.807,2.259,8.448,2.259v0.071l4.005,13.112c0,0,0,7.503,0.366,9.394
	c0.217,0.802,0.656,2.917,9.758,10.196c0.655,0.513,1.386,0.729,2.184,0.658c0.73-0.073,1.461-0.439,2.04-1.095
	c1.021-1.31,0.804-3.131-0.506-4.223c-3.135-2.48-7.722-7.065-7.722-7.065s-0.146-3.348-0.074-5.899c0-0.29,0.438-0.438,0.585-0.219
	c0.51,0.51,3.859,3.933,5.023,4.589c1.894,0.946,9.249,2.186,13.473,2.841c0.221,0.073,0.438,0.073,0.731,0.073
	c1.31-0.147,2.402-1.166,2.621-2.479C93.098,55.117,91.932,53.66,90.331,53.369L90.331,53.369z M51.218,36.612H28.274v0.656H26.31
	v1.827h1.965v0.796h1.678l1.526,9.034v0.073h0.075l1.455,8.667h0.729l-0.51-3.129l0.581-0.438l2.623,1.892l-1.019,0.947v0.804
	l1.676-1.313l2.184,1.385l0.073-0.656l-1.676-1.166l2.186-1.529l2.332,1.529l-1.022,0.8l-0.144,1.022l1.821-1.385l1.528,1.166
	v-0.874l-0.876-0.729l2.404-1.603l0.51,0.364l-0.438,2.771h0.729l2.914-17.63h1.603V36.612z M35.12,39.891h2.331l1.459,0.949
	l-2.479,1.746l-2.694-1.821L35.12,39.891z M33.082,40.332l-0.656-0.44h1.383L33.082,40.332z M40.222,40.911l1.455-1.02h2.113
	l1.455,1.02l-2.477,1.751L40.222,40.911z M42.112,43.099l-2.474,1.746l-2.622-1.821l2.552-1.674L42.112,43.099z M39.568,40.405
	l-0.806-0.514h1.674L39.568,40.405z M38.979,45.281l-2.548,1.75l-2.623-1.75l2.623-1.745L38.979,45.281z M36.432,47.906l2.404,1.674
	l-2.476,1.751l-2.478-1.679L36.432,47.906z M37.089,47.466l2.55-1.745l2.255,1.602l-2.473,1.819L37.089,47.466z M42.55,47.757
	l2.695,1.895l-2.477,1.75l-2.692-1.822L42.55,47.757z M42.55,46.885l-2.328-1.604l2.547-1.745l2.258,1.526L42.55,46.885z
	 M43.352,43.099l2.548-1.749l2.186,1.53l-2.474,1.746L43.352,43.099z M45.102,39.891h1.6l-0.802,0.514L45.102,39.891z
	 M30.606,39.891h0.508l1.385,0.874l-1.528,1.093L30.606,39.891z M31.114,42.586l1.968-1.386l2.695,1.823l-2.621,1.821l-1.895-1.31
	L31.114,42.586z M31.408,44.481l1.163,0.8l-0.872,0.585L31.408,44.481z M31.774,46.521l0.07,0.073l1.312-0.873l2.621,1.745
	l-2.55,1.749l-1.095-0.73L31.774,46.521z M32.354,49.508l0.217,0.219l-0.217,0.144V49.508z M33.082,53.731l-0.073-0.221l0.147,0.149
	L33.082,53.731z M33.809,53.15l-0.945-0.656l-0.364-1.82l0.803-0.514l2.476,1.605L33.809,53.15z M37.089,55.551l-2.621-1.891
	l1.964-1.457l2.769,1.821L37.089,55.551z M39.781,53.585l-2.765-1.819l2.404-1.748l2.767,1.823L39.781,53.585z M42.843,55.551
	l-2.406-1.526l2.406-1.749l2.402,1.676L42.843,55.551z M46.559,54.024v-0.073l0,0V54.024z M46.701,52.932L46.701,52.932
	l-0.802,0.579l-2.474-1.67l2.474-1.751l1.166,0.8L46.701,52.932z M47.213,50.089l-0.654-0.51l0.8-0.581L47.213,50.089z
	 M47.577,47.976l-1.678,1.166l-2.694-1.819l2.406-1.749l2.113,1.457L47.577,47.976z M47.87,46.23l-1.604-1.168l2.038-1.455
	L47.87,46.23z M48.522,42.224l-1.964-1.313l1.454-1.02h0.874L48.522,42.224z M44.881,29.769c0,2.55-2.038,4.59-4.59,4.59
	c-2.474,0-4.514-2.04-4.514-4.59c0-2.476,2.04-4.514,4.514-4.514C42.843,25.255,44.881,27.293,44.881,29.769L44.881,29.769z"/>
</svg>
