<?xml version="1.0" encoding="iso-8859-1"?>
<!-- Generator: Adobe Illustrator 16.0.0, SVG Export Plug-In . SVG Version: 6.00 Build 0)  -->
<!DOCTYPE svg PUBLIC "-//W3C//DTD SVG 1.1//EN" "http://www.w3.org/Graphics/SVG/1.1/DTD/svg11.dtd">
<svg version="1.1" id="Layer_1" xmlns="http://www.w3.org/2000/svg" xmlns:xlink="http://www.w3.org/1999/xlink" x="0px" y="0px"
	 width="100px" height="100px" viewBox="0 0 100 100" style="enable-background:new 0 0 100 100;" xml:space="preserve">
<g>
	<path style="fill:none;stroke:#BBBDBF;stroke-width:0;stroke-miterlimit:10;" d="M99.498,49.998
		c0,27.338-22.162,49.502-49.5,49.502c-27.336,0-49.496-22.164-49.496-49.502C0.502,22.662,22.662,0.5,49.998,0.5
		C77.336,0.5,99.498,22.662,99.498,49.998z"/>
</g>
<g>
	<path style="fill-rule:evenodd;clip-rule:evenodd;fill:#FFF;" d="M57.238,29.976c3.189,0,5.805-2.551,5.805-5.736
		c0-3.188-2.615-5.739-5.805-5.739c-3.123,0-5.736,2.551-5.736,5.739C51.502,27.425,54.115,29.976,57.238,29.976L57.238,29.976z
		 M43.145,65.813c0-8.675-7.014-15.688-15.684-15.688c-8.613,0-15.688,7.013-15.688,15.688c0,8.673,7.074,15.687,15.688,15.687
		C36.131,81.5,43.145,74.486,43.145,65.813L43.145,65.813z M27.461,50.572c2.041,0,4.014,0.446,5.799,1.211
		c1.916,0.765,3.576,1.847,4.977,3.256c1.404,1.399,2.549,3.123,3.316,4.972c0.764,1.783,1.146,3.763,1.146,5.803
		s-0.383,4.018-1.146,5.801c-0.768,1.914-1.912,3.572-3.316,4.977c-1.4,1.4-3.061,2.551-4.977,3.315
		c-1.785,0.7-3.758,1.145-5.799,1.145c-2.039,0-4.02-0.444-5.805-1.145c-1.85-0.765-3.568-1.915-4.91-3.315
		c-1.398-1.404-2.551-3.063-3.314-4.977c-0.766-1.783-1.15-3.761-1.15-5.801s0.385-4.02,1.15-5.803
		c0.764-1.849,1.916-3.572,3.314-4.972c1.342-1.409,3.061-2.491,4.91-3.256C23.441,51.019,25.422,50.572,27.461,50.572
		L27.461,50.572z M36.068,57.268c-1.148-1.146-2.488-2.039-3.953-2.68c-1.406-0.573-2.998-0.889-4.654-0.889
		c-1.66,0-3.189,0.315-4.594,0.889c-1.527,0.641-2.803,1.533-3.951,2.68c-1.148,1.086-2.041,2.422-2.615,3.888
		c-0.637,1.467-0.953,2.996-0.953,4.658c0,1.658,0.316,3.249,0.953,4.653c0.574,1.469,1.467,2.807,2.615,3.955
		c2.168,2.169,5.227,3.507,8.545,3.507c1.656,0,3.248-0.32,4.654-0.891c1.465-0.639,2.805-1.534,3.953-2.616
		c1.084-1.148,1.977-2.486,2.615-3.955c0.574-1.404,0.895-2.995,0.895-4.653c0-1.662-0.32-3.191-0.895-4.658
		C38.045,59.689,37.152,58.354,36.068,57.268L36.068,57.268z M72.543,81.5c8.672,0,15.684-7.014,15.684-15.687
		c0-8.675-7.012-15.688-15.684-15.688c-8.674,0-15.686,7.013-15.686,15.688C56.857,74.486,63.869,81.5,72.543,81.5L72.543,81.5z
		 M72.543,50.572c2.041,0,4.014,0.446,5.805,1.211c1.844,0.765,3.572,1.847,4.971,3.256c1.342,1.399,2.488,3.123,3.258,4.972
		c0.762,1.783,1.143,3.763,1.143,5.803s-0.381,4.018-1.143,5.801c-0.77,1.914-1.916,3.572-3.258,4.977
		c-1.398,1.4-3.127,2.551-4.971,3.315c-1.791,0.7-3.764,1.145-5.805,1.145c-2.043,0-4.02-0.444-5.803-1.145
		c-1.914-0.765-3.568-1.915-4.975-3.315c-1.4-1.404-2.551-3.063-3.311-4.977c-0.709-1.783-1.154-3.761-1.154-5.801
		s0.445-4.02,1.154-5.803c0.76-1.849,1.91-3.572,3.311-4.972c1.406-1.409,3.061-2.491,4.975-3.256
		C68.523,51.019,70.5,50.572,72.543,50.572L72.543,50.572z M81.092,57.268c-1.092-1.146-2.426-2.039-3.893-2.68
		c-1.467-0.573-2.998-0.889-4.656-0.889s-3.252,0.315-4.654,0.889c-1.465,0.641-2.805,1.533-3.957,2.68
		c-1.082,1.086-1.975,2.422-2.611,3.888c-0.57,1.467-0.893,2.996-0.893,4.658c0,1.658,0.322,3.249,0.893,4.653
		c0.637,1.469,1.529,2.807,2.611,3.955c2.234,2.169,5.232,3.507,8.611,3.507c1.658,0,3.189-0.32,4.656-0.891
		c1.467-0.639,2.801-1.534,3.893-2.616c1.143-1.148,2.035-2.486,2.674-3.955c0.574-1.404,0.895-2.995,0.895-4.653
		c0-1.662-0.32-3.191-0.895-4.658C83.127,59.689,82.234,58.354,81.092,57.268L81.092,57.268z M55.133,42.476
		c0.641,1.084,1.533,1.467,2.359,1.467h11.162c3.441,0,3.441-4.53,0-4.53l-9.631,0.066l-6.313-9.949c0,0-1.34-2.231-3.889-2.231
		c0,0-2.104-0.255-3.635,1.464l-12.18,12.181c-0.766,0.827-1.209,1.974-1.209,3.25c0,1.787,1.018,3.38,2.484,4.212l12.371,6.884
		v1.339c0,1.849,1.529,3.381,3.316,3.381c1.846,0,3.314-1.532,3.314-3.381v-4.593c0,0,0.443-2.547-2.488-4.016l-7.141-3.761
		l7.715-7.589L55.133,42.476z"/>
</g>
</svg>
