<?xml version="1.0" encoding="utf-8"?>
<!-- Generator: Adobe Illustrator 16.0.0, SVG Export Plug-In . SVG Version: 6.00 Build 0)  -->
<!DOCTYPE svg PUBLIC "-//W3C//DTD SVG 1.1//EN" "http://www.w3.org/Graphics/SVG/1.1/DTD/svg11.dtd">
<svg version="1.1" id="Layer_1" xmlns="http://www.w3.org/2000/svg" xmlns:xlink="http://www.w3.org/1999/xlink" x="0px" y="0px"
	 width="100px" height="100px" viewBox="269.666 0 100 100" enable-background="new 269.666 0 100 100" xml:space="preserve">
<circle fill="none" stroke="#FFFFFF" stroke-width="0.99" stroke-miterlimit="10" cx="319.666" cy="50" r="49.5"/>
<g>
	<g>
		<circle fill="#FFFFFF" cx="331.266" cy="35.186" r="7.321"/>
		<path fill="#FFFFFF" d="M295.295,65.318c1.588,0.099,3.059-0.834,3.646-2.312l3.647-9.177l7.188,8.212L307.3,76.617
			c-0.977,1.781-0.326,4.019,1.455,4.995c1.782,0.977,4.019,0.324,4.996-1.457l3.714-16.831c0.743-1.354,0.559-3.029-0.458-4.192
			l-6.832-7.805l7.784-4.176l3.099,7.397c0.327,0.78,0.904,1.41,1.625,1.806c0.323,0.177,0.674,0.309,1.047,0.382l12.049,2.413
			c1.991,0.399,3.932-0.892,4.329-2.885c0.402-1.99-0.895-3.93-2.885-4.327l-10.133-2.03L321.807,37.3
			c-0.017-0.039-0.039-0.067-0.056-0.104c-0.058-0.125-0.123-0.238-0.191-0.353c-0.058-0.096-0.112-0.192-0.178-0.281
			c-0.07-0.099-0.153-0.188-0.235-0.281c-0.078-0.091-0.16-0.182-0.247-0.261c-0.083-0.076-0.17-0.141-0.259-0.209
			c-0.104-0.081-0.213-0.159-0.326-0.229c-0.035-0.021-0.063-0.049-0.101-0.069l-13.056-7.325l-5.923-11.221
			c-0.947-1.795-3.177-2.485-4.968-1.536c-1.797,0.948-2.484,3.172-1.537,4.97l6.43,12.18c0.331,0.627,0.836,1.143,1.453,1.49
			l6.911,3.878l-10.471,6.034l0.049,0.038c-0.04,0.034-0.088,0.056-0.13,0.092c-0.032,0.029-0.055,0.064-0.088,0.094
			c-0.093,0.088-0.179,0.184-0.262,0.282c-0.078,0.093-0.159,0.184-0.227,0.282c-0.063,0.087-0.116,0.183-0.17,0.278
			c-0.071,0.121-0.138,0.244-0.194,0.374c-0.016,0.035-0.037,0.065-0.053,0.103l-4.887,12.289l-14.585-0.903
			c-2.024-0.125-3.772,1.417-3.896,3.443c-0.092,1.471,0.693,2.791,1.904,3.454c0.46,0.254,0.98,0.412,1.54,0.445L295.295,65.318z"
			/>
		<path fill="#FFFFFF" d="M348.237,63.919c-5.607,0-10.154,4.546-10.154,10.154c0,5.607,4.545,10.153,10.154,10.153
			c5.607,0,10.154-4.547,10.154-10.153C358.392,68.464,353.846,63.919,348.237,63.919z M342.08,70.227
			c0-0.656,0.529-1.186,1.184-1.186c0.653,0,1.186,0.529,1.186,1.186c0,0.653-0.532,1.184-1.186,1.184
			C342.609,71.41,342.08,70.88,342.08,70.227z M345.077,74.314c-0.654,0-1.184-0.529-1.184-1.184c0-0.656,0.53-1.186,1.184-1.186
			s1.186,0.529,1.186,1.186C346.263,73.785,345.73,74.314,345.077,74.314z M347.054,71.41c-0.654,0-1.186-0.53-1.186-1.184
			c0-0.656,0.531-1.186,1.186-1.186s1.184,0.529,1.184,1.186C348.237,70.88,347.708,71.41,347.054,71.41z"/>
		<path fill="#FFFFFF" d="M326.147,72.273c-0.065-0.419-0.458-0.708-0.875-0.643c-0.42,0.065-0.707,0.455-0.644,0.873
			c0.015,0.1,1.635,10.016,12.341,12.47c0.059,0.014,0.114,0.021,0.172,0.021c0.35,0,0.666-0.241,0.748-0.596
			c0.095-0.413-0.164-0.826-0.576-0.92c-0.448-0.104-0.86-0.232-1.272-0.361c-6.669-2.077-8.929-7.332-9.614-9.683
			C326.236,72.787,326.159,72.349,326.147,72.273z"/>
		<path fill="#FFFFFF" d="M332.84,78.148c0.309,0,0.6-0.188,0.718-0.491c0.151-0.396-0.046-0.84-0.441-0.992
			c-0.298-0.114-0.578-0.266-0.842-0.438c-2.437-1.584-3.42-5.359-3.804-7.742c-0.193-1.204-0.236-2.05-0.236-2.078
			c-0.02-0.423-0.376-0.723-0.801-0.733c-0.423,0.019-0.753,0.377-0.733,0.8c0.016,0.389,0.467,9.548,5.864,11.624
			C332.654,78.131,332.748,78.148,332.84,78.148z"/>
	</g>
</g>
</svg>
