<?xml version="1.0" encoding="utf-8"?>
<!-- Generator: Adobe Illustrator 16.0.0, SVG Export Plug-In . SVG Version: 6.00 Build 0)  -->
<!DOCTYPE svg PUBLIC "-//W3C//DTD SVG 1.1//EN" "http://www.w3.org/Graphics/SVG/1.1/DTD/svg11.dtd">
<svg version="1.1" id="Layer_1" xmlns="http://www.w3.org/2000/svg" xmlns:xlink="http://www.w3.org/1999/xlink" x="0px" y="0px"
	 width="100px" height="100px" viewBox="407.666 0 100 100" enable-background="new 407.666 0 100 100" xml:space="preserve">
<circle fill="none" stroke="#FFFFFF" stroke-width="0.99" stroke-miterlimit="10" cx="457.666" cy="50" r="49.5"/>
<g>
	<g>
		<path fill="#FFFFFF" d="M487.682,82.552l-11.301-9.851l-6.244-9.365l0.708-11.971l3.337,8.193
			c0.678,1.671,2.595,2.484,4.269,1.802c1.675-0.683,2.484-2.596,1.802-4.274l-7.478-18.365c-4.479-6.068-11.789-3.55-12.006-3.826
			l-12.357-15.512c-1.124-1.414-2.095-1.653-3.51-0.521c-1.419,1.126-1.648,3.188-0.521,4.603l12.348,15.511
			c0.671,0.844,1.889,12.102,1.889,12.102l-2.661,10.834c0,0-0.999,7.906-0.794,10.358c0.209,2.451,8.766,13.369,8.766,13.369
			c4.595,7.383,6.438,5.157,6.438,5.157s2.657-0.844,0.62-4.114l-8.736-12.499l0.827-10.396l7.63,11.11l9.683,7.831
			c2.694,2.403,3.978,3.719,5.804,3.198C489.425,84.691,487.682,82.552,487.682,82.552z"/>
		<circle fill="#FFFFFF" cx="467.155" cy="26.299" r="7.494"/>
		<ellipse fill="#FFFFFF" cx="429.209" cy="22.584" rx="9.009" ry="3.097"/>
	</g>
</g>
</svg>
