<?xml version="1.0" encoding="iso-8859-1"?>
<!-- Generator: Adobe Illustrator 16.0.0, SVG Export Plug-In . SVG Version: 6.00 Build 0)  -->
<!DOCTYPE svg PUBLIC "-//W3C//DTD SVG 1.1//EN" "http://www.w3.org/Graphics/SVG/1.1/DTD/svg11.dtd">
<svg version="1.1" id="Layer_1" xmlns="http://www.w3.org/2000/svg" xmlns:xlink="http://www.w3.org/1999/xlink" x="0px" y="0px"
	 width="100px" height="100px" viewBox="0 0 100 100" style="enable-background:new 0 0 100 100;" xml:space="preserve">
<g>
	<path style="fill:none;stroke:#BBBDBF;stroke-width:0;stroke-miterlimit:10;" d="M99.498,49.998
		c0,27.338-22.162,49.502-49.5,49.502c-27.336,0-49.496-22.164-49.496-49.502C0.502,22.662,22.662,0.5,49.998,0.5
		C77.336,0.5,99.498,22.662,99.498,49.998z"/>
</g>
<path style="fill-rule:evenodd;clip-rule:evenodd;fill:#FFF;" d="M49.419,26.472c2.17,0,3.916-1.818,3.916-3.917
	c0-2.168-1.746-3.915-3.916-3.915c-2.166,0-3.914,1.747-3.914,3.915C45.505,24.653,47.253,26.472,49.419,26.472L49.419,26.472z
	 M76.899,63.738c-0.908-1.885-3.287-3.357-5.383-3.357h-1.609c-1.541,0-3.777-0.979-4.826-2.098L53.335,45.558l0.07-14.681
	c2.377-2.027,5.105-4.547,5.664-5.525c0.629-1.328,0.98-4.472,1.049-5.033c0.068-0.911-0.559-1.747-1.469-1.818
	c-0.068,0-0.139,0-0.207,0c-0.84,0-1.541,0.627-1.68,1.464c-0.141,1.399-0.42,3.221-0.701,3.85
	c-0.279,0.419-1.887,1.957-3.566,3.426h-5.801c-1.68-1.469-3.219-3.007-3.566-3.426c-0.281-0.629-0.561-2.45-0.699-3.85
	c-0.07-0.837-0.84-1.464-1.68-1.464c-0.068,0-0.139,0-0.139,0c-0.91,0.071-1.607,0.907-1.539,1.818
	c0.07,0.562,0.422,3.705,1.119,5.033c0.42,0.911,3.006,3.218,5.244,5.178l0.35,15.028L33.759,68.842
	c-0.422,0.838-1.26,1.329-2.168,1.329c-0.35,0-0.766-0.069-1.049-0.208l-4.473-2.237c-0.563-0.28-1.193-0.42-1.822-0.42
	c-1.535,0-3.004,0.838-3.703,2.095l-5.174,9.511c-0.352,0.629-0.424,1.255-0.07,1.818c0.279,0.487,0.84,0.771,1.607,0.771h66.217
	c0.697,0,1.256-0.283,1.605-0.771c0.281-0.487,0.281-1.189-0.07-1.818L76.899,63.738z M47.112,46.397l4.824,0.072l11.959,12.933
	c0.697,0.771,1.748,1.396,2.865,1.888c-0.211,0.211-0.35,0.422-0.42,0.699l-3.496,9.857c-0.281,0.844-1.051,0.98-1.678,0.353
	l-0.42-0.49c-0.561-0.629-1.4-1.816-1.889-2.586l-0.629-1.049c-0.418-0.769-1.117-1.047-1.607-0.698
	c-0.42,0.417-0.98,0.069-1.26-0.841l-1.047-3.006c-0.281-0.909-0.98-0.979-1.539-0.281l-1.75,2.169
	c-0.559,0.698-1.047,0.56-1.047-0.35v-3.429c0-0.907-0.561-1.116-1.188-0.557l-1.609,1.469c-0.699,0.626-1.117,0.419-0.979-0.488
	l0.908-5.879c0.141-0.904-0.277-1.115-0.98-0.559l-0.348,0.351c-0.699,0.563-1.121,0.28-0.979-0.56l1.326-6.99L47.112,46.397z
	 M49.909,42.902c-0.072,0-0.209-0.07-0.348-0.07c-0.211,0-0.418,0.07-0.631,0.138v-3.703h0.979V42.902z M71.517,61.989
	c1.465,0,3.283,1.122,3.984,2.449l3.494,6.921l-1.047-0.353c-0.84-0.276-1.539,0.144-1.539,0.909c0,0.774-0.418,0.843-0.908,0.142
	l-0.141-0.211c-0.561-0.696-1.189-1.323-1.539-1.323s-0.84-0.561-1.115-1.334c-0.281-0.697-0.842-1.046-1.189-0.697
	c-0.424,0.35-0.771-0.138-0.771-0.978v-0.629c0-0.909-0.629-1.607-1.396-1.607c-0.771,0-1.26-0.701-1.049-1.61
	c0,0,0.139-0.557,0.277-1.259c0.068-0.21,0.068-0.347,0-0.556c0.488,0.136,0.908,0.136,1.33,0.136H71.517L71.517,61.989z"/>
</svg>
