<?xml version="1.0" encoding="utf-8"?>
<!-- Generator: Adobe Illustrator 16.0.0, SVG Export Plug-In . SVG Version: 6.00 Build 0)  -->
<!DOCTYPE svg PUBLIC "-//W3C//DTD SVG 1.1//EN" "http://www.w3.org/Graphics/SVG/1.1/DTD/svg11.dtd">
<svg version="1.1" id="Layer_1" xmlns="http://www.w3.org/2000/svg" xmlns:xlink="http://www.w3.org/1999/xlink" x="0px" y="0px"
	 width="100px" height="100px" viewBox="538.999 0 100 100" enable-background="new 538.999 0 100 100" xml:space="preserve">
<circle fill="none" stroke="#FFFFFF" stroke-width="0.99" stroke-miterlimit="10" cx="588.999" cy="50" r="49.5"/>
<g>
	<path fill="#FFFFFF" d="M615.862,40.05c-0.326-1.243-1.6-1.987-2.843-1.661l-9.102,2.389l-5.677-5.333
		c-0.18,1.396-0.61,3.077-1.335,5.135l4.764,4.474c0.437,0.411,1.009,0.631,1.593,0.631c0.198,0,0.396-0.024,0.592-0.075
		l10.347-2.716C615.445,42.566,616.188,41.293,615.862,40.05z"/>
	<path fill="#FFFFFF" d="M597.655,27.751c4.191,0,7.588-3.397,7.588-7.587c0-4.191-3.396-7.588-7.588-7.588
		c-4.19,0-7.587,3.397-7.587,7.588C590.068,24.354,593.465,27.751,597.655,27.751z"/>
	<path fill="#FFFFFF" d="M601.259,76.984l-6.348-3.327l0.129-0.849l1.727-11.404c0.14-1.052-0.208-2.111-0.944-2.877l-5.282-5.5
		c0.763-1.632,2.059-4.545,4.188-9.67c4.225-10.175,2.479-12.093,0.323-13.645c-1.859-1.339-7.626-0.177-9.179,0.168l-9.016,1.614
		c-0.739,0.132-1.368,0.613-1.691,1.291l-5.174,10.865c-0.552,1.16-0.06,2.55,1.102,3.102c0.323,0.155,0.664,0.228,0.999,0.228
		c0.87,0,1.704-0.49,2.104-1.327l4.659-9.785l5.919-1.06l-5.063,16.544l-2.902,6.949L561.1,66.896l5.238,12.675l2.393-1.745
		l0.449-7.51l12.238-6.65c0.627-0.383,1.116-0.954,1.399-1.632l2.027-4.853l4.778,4.973l-2.914,17.417h6.143h1.164h7.243V76.984
		L601.259,76.984z"/>
	<path fill="#FFFFFF" d="M601.361,80.865c-1.003,0-1.816,0.813-1.816,1.814c0,1.003,0.813,1.816,1.816,1.816
		s1.815-0.813,1.815-1.816C603.177,81.678,602.364,80.865,601.361,80.865z"/>
	<circle fill="#FFFFFF" cx="596.277" cy="82.681" r="1.815"/>
	<path fill="#FFFFFF" d="M591.194,80.865c-1.003,0-1.816,0.813-1.816,1.814c0,1.003,0.813,1.816,1.816,1.816
		c1.002,0,1.815-0.813,1.815-1.816C593.01,81.678,592.196,80.865,591.194,80.865z"/>
	<circle fill="#FFFFFF" cx="586.109" cy="82.681" r="1.815"/>
	<circle fill="#FFFFFF" cx="563.874" cy="81.435" r="1.816"/>
	<path fill="#FFFFFF" d="M563.385,76.059c-0.422-0.91-1.501-1.305-2.41-0.884c-0.91,0.422-1.307,1.501-0.885,2.411
		c0.421,0.91,1.501,1.305,2.41,0.884C563.41,78.048,563.806,76.969,563.385,76.059z"/>
	<path fill="#FFFFFF" d="M561.247,71.445c-0.421-0.909-1.5-1.305-2.41-0.883c-0.91,0.421-1.306,1.5-0.885,2.409
		c0.422,0.91,1.502,1.307,2.411,0.885C561.273,73.435,561.669,72.355,561.247,71.445z"/>
	<path fill="#FFFFFF" d="M559.11,66.833c-0.422-0.91-1.501-1.305-2.41-0.884c-0.91,0.422-1.306,1.501-0.885,2.411
		c0.422,0.91,1.501,1.305,2.41,0.884C559.136,68.822,559.531,67.743,559.11,66.833z"/>
</g>
</svg>
