<?xml version="1.0" encoding="iso-8859-1"?>
<!-- Generator: Adobe Illustrator 16.0.0, SVG Export Plug-In . SVG Version: 6.00 Build 0)  -->
<!DOCTYPE svg PUBLIC "-//W3C//DTD SVG 1.1//EN" "http://www.w3.org/Graphics/SVG/1.1/DTD/svg11.dtd">
<svg version="1.1" id="Layer_1" xmlns="http://www.w3.org/2000/svg" xmlns:xlink="http://www.w3.org/1999/xlink" x="0px" y="0px"
	 width="100px" height="100px" viewBox="0 0 100 100" style="enable-background:new 0 0 100 100;" xml:space="preserve">
<g>
	<path style="fill:none;stroke:#BBBDBF;stroke-width:0;stroke-miterlimit:10;" d="M99.498,49.998
		c0,27.338-22.162,49.502-49.5,49.502c-27.336,0-49.496-22.164-49.496-49.502C0.502,22.662,22.662,0.5,49.998,0.5
		C77.336,0.5,99.498,22.662,99.498,49.998z"/>
</g>
<path style="fill-rule:evenodd;clip-rule:evenodd;fill:#FFF;" d="M60.57,32.254c3.896,0,7.083-3.188,7.083-7.09
	c0-3.9-3.187-7.09-7.083-7.09c-3.973,0-7.157,3.19-7.157,7.09C53.413,29.066,56.598,32.254,60.57,32.254L60.57,32.254z
	 M73.313,33.229c-4.098,5.724-9.561,6.374-15.414,2.925c-0.387-0.258-2.21-1.233-2.599-1.496
	c-9.432-5.593-18.862-3.381-25.167,5.463c-2.67,3.771,3.51,7.348,6.178,3.642c3.248-4.617,7.411-5.918,11.963-4.484
	c-2.338,4.028-4.358,8.062-7.217,13.784c-2.863,5.659-9.236,10.209-15.283,6.699c-4.422-2.601-8.391,3.707-4.033,6.307
	c8.326,4.813,18.082,1.885,23.087-4.486c0.132,0.13,0.326,0.195,0.523,0.259c4.095,1.431,9.428,5.202,11.054,6.507
	c1.626,1.362,4.422,8.192,6.048,11.574c2.015,4.162,8.521,1.169,6.503-2.991c-1.886-3.901-5.01-11.641-7.477-13.595
	c-2.019-1.624-5.79-4.55-9.042-6.175c2.146-4.294,4.487-8.455,6.895-12.617c7.672,2.34,14.958-0.391,20.161-7.677
	C82.157,33.097,75.979,29.523,73.313,33.229L73.313,33.229z"/>
</svg>
