<?xml version="1.0" encoding="utf-8"?>
<!-- Generator: Adobe Illustrator 16.0.0, SVG Export Plug-In . SVG Version: 6.00 Build 0)  -->
<!DOCTYPE svg PUBLIC "-//W3C//DTD SVG 1.1//EN" "http://www.w3.org/Graphics/SVG/1.1/DTD/svg11.dtd">
<svg version="1.1" id="Layer_1" xmlns="http://www.w3.org/2000/svg" xmlns:xlink="http://www.w3.org/1999/xlink" x="0px" y="0px"
	 width="100px" height="100px" viewBox="670.999 0 100 100" enable-background="new 670.999 0 100 100" xml:space="preserve">
<circle fill="none" stroke="#FFFFFF" stroke-width="0.99" stroke-miterlimit="10" cx="720.999" cy="50" r="49.5"/>
<g>
	<g id="Layer_1_8_">
		<g>
			<path fill="#FFFFFF" d="M734.093,78.854c-0.729-0.465-1.699-0.25-2.163,0.48c-1.006,1.576-4.372,0.716-6.526,0.127
				c-0.046-0.013-31.349-8.738-31.349-8.738c-0.835-0.231-1.698,0.256-1.931,1.09s0.256,1.698,1.09,1.931l5.575,1.553
				c-0.286,0.336-0.508,0.736-0.635,1.189c-0.465,1.668,0.511,3.396,2.179,3.86c1.667,0.465,3.395-0.511,3.859-2.178
				c0.127-0.454,0.144-0.912,0.071-1.348l15.812,4.403c-0.286,0.337-0.509,0.736-0.636,1.19c-0.464,1.667,0.512,3.396,2.179,3.859
				c1.667,0.465,3.396-0.51,3.859-2.178c0.121-0.436,0.143-0.874,0.081-1.294c0.01,0.003,0.019,0.005,0.028,0.008
				c2.313,0.645,6.935,1.428,8.985-1.793C735.037,80.288,734.822,79.318,734.093,78.854z"/>
			<path fill="#FFFFFF" d="M717.289,27.59c0.845,0.568,1.802,0.962,2.8,1.157l0.011,0.002c2.475,0.48,5.076-0.316,6.861-2.097
				c1.81-1.807,2.604-4.477,2.077-6.98c-0.514-2.437-2.237-4.523-4.538-5.481c-2.355-0.979-5.101-0.708-7.215,0.717
				c-2.115,1.425-3.396,3.868-3.373,6.419C713.937,23.819,715.224,26.199,717.289,27.59z"/>
			<path fill="#FFFFFF" d="M750.927,26.568c-0.159-1.708-1.673-2.965-3.381-2.807l-13.829,1.281
				c-0.781,0.091-3.119,0.995-5.153,1.695c-0.292,0.436-0.627,0.846-1.002,1.22c-1.931,1.926-4.747,2.788-7.425,2.268l-0.011-0.002
				c-1.08-0.211-2.115-0.638-3.029-1.252c-0.478-0.32-0.913-0.693-1.308-1.103c-4.582-0.402-9.875-0.827-13.372-0.252l-11.605,3.935
				c-1.183,0.399-1.905,1.629-1.639,2.879c0.286,1.347,1.611,2.207,2.958,1.919l11.263-2.397l8.663,1.161
				c0,0-3.398,12.715-3.398,12.716c-1.474,5.994,3.712,10.361,3.712,10.361l-6.421,10.169c-0.858,1.368-0.533,3.195,0.791,4.166
				c1.384,1.016,3.329,0.716,4.344-0.669l8.674-11.832c0.48-0.66,0.708-1.47,0.652-2.275l4.421,0.824l-7.777,12.144
				c-0.884,1.383-0.543,3.237,0.808,4.203c1.396,0.998,3.337,0.676,4.336-0.719l11.565-16.17c0.257-0.364,0.462-0.798,0.569-1.26
				c0.446-1.91-0.741-3.819-2.651-4.266l-0.169-0.039l-7.41-1.729l3.495-13.08c0.164-0.616,0.249-1.233,0.263-1.844
				c0.085-0.038,0.167-0.079,0.249-0.125l7.106-3.901l13.056-1.857C749.896,29.697,751.079,28.224,750.927,26.568z"/>
		</g>
	</g>
</g>
</svg>
