<?xml version="1.0" encoding="iso-8859-1"?>
<!-- Generator: Adobe Illustrator 16.0.0, SVG Export Plug-In . SVG Version: 6.00 Build 0)  -->
<!DOCTYPE svg PUBLIC "-//W3C//DTD SVG 1.1//EN" "http://www.w3.org/Graphics/SVG/1.1/DTD/svg11.dtd">
<svg version="1.1" id="Layer_1" xmlns="http://www.w3.org/2000/svg" xmlns:xlink="http://www.w3.org/1999/xlink" x="0px" y="0px"
	 width="100px" height="100px" viewBox="0 0 100 100" style="enable-background:new 0 0 100 100;" xml:space="preserve">
<g>
	<path style="fill:none;stroke:#BBBDBF;stroke-width:0;stroke-miterlimit:10;" d="M99.498,49.998
		c0,27.338-22.162,49.502-49.5,49.502c-27.336,0-49.496-22.164-49.496-49.502C0.502,22.662,22.662,0.5,49.998,0.5
		C77.336,0.5,99.498,22.662,99.498,49.998z"/>
</g>
<path style="fill-rule:evenodd;clip-rule:evenodd;fill:#FFF;" d="M72.293,41.504c2.467,2.472,6.486,2.396,8.879-0.073
	c2.467-2.47,2.393-6.486-0.078-8.878c-2.471-2.473-6.488-2.396-8.877,0.075C69.824,35.101,69.824,39.111,72.293,41.504
	L72.293,41.504z M73.451,81.5l7.256-7.415L63.49,57.259c2.549-4.018,3.941-8.726,3.941-13.823
	C67.275,29.465,55.85,18.347,41.955,18.501c-13.977,0.155-25.094,11.502-24.939,25.475c0.156,13.898,11.506,25.095,25.479,24.935
	c5.094-0.072,9.803-1.618,13.74-4.243L73.451,81.5z"/>
</svg>
