<?xml version="1.0" encoding="utf-8"?>
<!-- Generator: Adobe Illustrator 16.0.0, SVG Export Plug-In . SVG Version: 6.00 Build 0)  -->
<!DOCTYPE svg PUBLIC "-//W3C//DTD SVG 1.1//EN" "http://www.w3.org/Graphics/SVG/1.1/DTD/svg11.dtd">
<svg version="1.1" id="Layer_1" xmlns="http://www.w3.org/2000/svg" xmlns:xlink="http://www.w3.org/1999/xlink" x="0px" y="0px"
	 width="100px" height="100px" viewBox="934.999 0 100 100" enable-background="new 934.999 0 100 100" xml:space="preserve">
<circle fill="none" stroke="#FFFFFF" stroke-width="0.99" stroke-miterlimit="10" cx="984.999" cy="50" r="49.5"/>
<g>
	<g id="Layer_1_12_">
		<g>
			<path fill="#FFFFFF" d="M1007.524,24.358c-1.526-0.691-3.322-0.014-4.014,1.511l-3.287,7.258c0,0-8.029,3.26-9.445,3.718
				c-2.744,0.89-6.008,0.611-11.031,1.944l-9.522,2.349l-6.687-4.991c1.259-2.186,3.382-5.873,3.913-6.805
				c0.574-1.009,1.866-2.373,2.52-3.034c1.369,0.206,2.813,0.024,4.224-0.531c2.224-0.875,4.156-2.601,5.442-4.859
				c1.285-2.258,1.782-4.8,1.4-7.16c-0.401-2.477-1.712-4.461-3.691-5.588c-1.092-0.621-2.295-0.937-3.577-0.937
				c-1.03,0-2.078,0.207-3.113,0.615c-2.224,0.875-4.156,2.601-5.441,4.859c-1.286,2.257-1.783,4.8-1.401,7.16
				c0.242,1.493,0.829,2.839,1.702,3.907c-0.225,0.88-0.723,2.653-1.326,3.711c-0.545,0.956-3.384,5.886-4.316,7.506l-0.064,0.109
				c-0.223,0.118-0.432,0.271-0.615,0.464c-0.929,0.969-0.896,2.509,0.073,3.438l8.301,7.957c0.594,0.563,1.44,0.864,2.312,0.729
				l0.383-0.059l8.241-1.27l2.314,17.062l-6.014,25.152c-0.315,1.672,0.614,3.375,2.265,3.977c1.836,0.668,3.864-0.277,4.533-2.113
				l8.524-20.867l3.333,7.043l-2.391,12.061c-0.372,1.955,1.184,3.561,3.062,3.857c1.985,0.313,3.71-1.041,4.161-3.027l3.427-13.201
				c0.087-0.564,0.038-1.172-0.176-1.746l-0.121-0.324l-3.372-9.021l-3.041-22.147l9.03-4.041l0.247-0.11
				c0.739-0.334,1.348-0.957,1.642-1.781l3.203-8.996C1009.647,26.67,1008.969,25.013,1007.524,24.358z M967.767,14.161
				c1.379-2.422,3.73-3.988,5.991-3.988c0.774,0,1.492,0.186,2.134,0.55c2.569,1.462,3.104,5.384,1.191,8.742
				c-1.379,2.422-3.73,3.988-5.991,3.988c-0.774,0-1.493-0.185-2.134-0.55c-1.227-0.698-2.031-1.982-2.267-3.615
				C966.452,17.621,966.833,15.8,967.767,14.161z"/>
			<path fill="#FFFFFF" d="M977.42,28.829c-0.462,3.939,2.358,7.507,6.299,7.968c3.939,0.461,7.507-2.359,7.968-6.299
				c0.461-3.939-2.359-7.507-6.299-7.968C981.447,22.068,977.88,24.889,977.42,28.829z"/>
			<circle fill="#FFFFFF" cx="1002.746" cy="17.443" r="2.714"/>
		</g>
	</g>
</g>
</svg>
