<?xml version="1.0" encoding="iso-8859-1"?>
<!-- Generator: Adobe Illustrator 16.0.0, SVG Export Plug-In . SVG Version: 6.00 Build 0)  -->
<!DOCTYPE svg PUBLIC "-//W3C//DTD SVG 1.1//EN" "http://www.w3.org/Graphics/SVG/1.1/DTD/svg11.dtd">
<svg version="1.1" id="Layer_1" xmlns="http://www.w3.org/2000/svg" xmlns:xlink="http://www.w3.org/1999/xlink" x="0px" y="0px"
	 width="1024px" height="1024px" viewBox="0 0 1024 1024" style="enable-background:new 0 0 1024 1024;" xml:space="preserve">
<g>
	<circle cx="499.443" cy="335.767" r="80.799"/>
	<path d="M680.539,795.756l-11.1-72.151c-5.604-54.447-21.48-180.982-52.783-241.038c-19.4-37.217-54.537-45.812-80.796-32.716
		c-2.107,1.05-4.185,2.127-6.235,3.219c-3.203,0.924-6.314,2.357-9.191,4.386l-6.604,4.654
		c-21.06,12.866-36.007,25.152-36.007,25.152c0.023,0.055,0.047,0.124,0.067,0.18l-55.455,39.084l-85.272-88.085
		c-11.8-12.189-31.254-12.509-43.447-0.705c-12.192,11.802-12.509,31.254-0.705,43.447l103.557,106.977
		c5.976,6.174,14.001,9.355,22.086,9.355c6.155,0,12.346-1.844,17.69-5.611l55.817-39.342
		c11.362,63.38,23.952,149.434,25.678,161.289l-21.291,69.188L385.264,905.718c-13.301,14.663-12.196,37.334,2.467,50.637
		c6.865,6.225,15.483,9.295,24.075,9.295c9.758,0,19.487-3.964,26.562-11.763l116.646-128.595c3.531-3.895,6.165-8.519,7.708-13.543
		l31.243-101.53l0.95,0.48l13.323,86.604l-54.672,143.646c-7.041,18.503,2.251,39.214,20.751,46.256
		c4.198,1.597,8.509,2.354,12.746,2.354c14.449,0,28.065-8.799,33.51-23.104l58.038-152.494
		C680.818,808.159,681.482,801.887,680.539,795.756z"/>
	<g>
		<path d="M643.971,174.738c-43.612,0-79.093-35.48-79.093-79.091c0-43.612,35.48-79.092,79.093-79.092
			c43.608,0,79.089,35.48,79.089,79.092C723.06,139.258,687.58,174.738,643.971,174.738z M643.971,47.281
			c-26.669,0-48.366,21.698-48.366,48.366s21.697,48.365,48.366,48.365s48.362-21.696,48.362-48.365S670.64,47.281,643.971,47.281z"
			/>
	</g>
	<path d="M722.223,207.931c-15.3-7.359-33.653-0.917-41.008,14.375l-99.22,206.321c19.577,6.066,36.801,20.267,48.687,40.563
		l105.917-220.252C743.951,233.645,737.516,215.286,722.223,207.931z"/>
</g>
</svg>
