<?xml version="1.0" encoding="utf-8"?>
<!-- Generator: Adobe Illustrator 16.0.0, SVG Export Plug-In . SVG Version: 6.00 Build 0)  -->
<!DOCTYPE svg PUBLIC "-//W3C//DTD SVG 1.1//EN" "http://www.w3.org/Graphics/SVG/1.1/DTD/svg11.dtd">
<svg version="1.1" id="Layer_1" xmlns="http://www.w3.org/2000/svg" xmlns:xlink="http://www.w3.org/1999/xlink" x="0px" y="0px"
	 width="100px" height="100px" viewBox="0 0 100 100" enable-background="new 0 0 100 100" xml:space="preserve">
<g>
	<circle fill="#FFFFFF" cx="43.693" cy="34.444" r="6.626"/>
	<path fill="#FFFFFF" d="M58.546,72.171l-0.91-5.917c-0.46-4.466-1.762-14.845-4.328-19.77c-1.592-3.053-4.474-3.757-6.627-2.683
		c-0.175,0.085-0.344,0.174-0.512,0.264c-0.263,0.076-0.519,0.193-0.754,0.36l-0.542,0.381c-1.728,1.056-2.954,2.063-2.954,2.063
		c0.003,0.004,0.005,0.01,0.007,0.014l-4.549,3.206l-6.992-7.225c-0.969-1-2.564-1.026-3.564-0.057
		c-1,0.967-1.025,2.563-0.058,3.563l8.493,8.774c0.49,0.507,1.148,0.767,1.812,0.767c0.505,0,1.012-0.149,1.45-0.459l4.578-3.227
		c0.932,5.197,1.965,12.256,2.106,13.228l-1.747,5.675l-9.127,10.062c-1.092,1.203-1,3.063,0.203,4.154
		c0.563,0.51,1.27,0.761,1.975,0.761c0.8,0,1.598-0.324,2.178-0.964l9.568-10.547c0.289-0.319,0.505-0.699,0.631-1.111l2.563-8.327
		l0.079,0.04l1.093,7.103l-4.486,11.781c-0.576,1.517,0.187,3.217,1.704,3.794c0.343,0.131,0.696,0.193,1.044,0.193
		c1.186,0,2.303-0.723,2.75-1.895l4.759-12.507C58.569,73.188,58.623,72.674,58.546,72.171z"/>
	<g>
		<path fill="#FFFFFF" d="M55.547,21.238c-3.576,0-6.487-2.911-6.487-6.487c0-3.577,2.911-6.487,6.487-6.487s6.487,2.91,6.487,6.487
			C62.034,18.328,59.123,21.238,55.547,21.238z M55.547,10.784c-2.187,0-3.967,1.78-3.967,3.967c0,2.187,1.78,3.966,3.967,3.966
			s3.967-1.779,3.967-3.966C59.514,12.563,57.733,10.784,55.547,10.784z"/>
	</g>
	<path fill="#FFFFFF" d="M61.966,23.959c-1.256-0.604-2.761-0.075-3.363,1.179l-8.14,16.922c1.606,0.497,3.02,1.662,3.994,3.327
		l8.688-18.064C63.747,26.069,63.22,24.562,61.966,23.959z"/>
</g>
<circle fill="none" stroke="#FFFFFF" stroke-width="0.99" stroke-miterlimit="10" cx="50" cy="50" r="49.5"/>
</svg>
