<?xml version="1.0" encoding="utf-8"?>
<!-- Generator: Adobe Illustrator 16.0.0, SVG Export Plug-In . SVG Version: 6.00 Build 0)  -->
<!DOCTYPE svg PUBLIC "-//W3C//DTD SVG 1.1//EN" "http://www.w3.org/Graphics/SVG/1.1/DTD/svg11.dtd">
<svg version="1.1" id="Layer_1" xmlns="http://www.w3.org/2000/svg" xmlns:xlink="http://www.w3.org/1999/xlink" x="0px" y="0px"
	 width="100px" height="100px" viewBox="133.333 0 100 100" enable-background="new 133.333 0 100 100" xml:space="preserve">
<circle fill="none" stroke="#FFFFFF" stroke-width="0.99" stroke-miterlimit="10" cx="183.333" cy="50" r="49.5"/>
<g>
	<g>
		<circle fill="#FFFFFF" cx="183.153" cy="21.339" r="8.742"/>
	</g>
</g>
<g>
	<g>
		<path fill="#FFFFFF" d="M200.145,76.208l-10.766,4.037l5.354,2.007c2.303,0.856,4.789-0.33,5.627-2.558
			C200.806,78.504,200.675,77.26,200.145,76.208z"/>
	</g>
</g>
<g>
	<g>
		<path fill="#FFFFFF" d="M162.836,60.954c-2.257-0.836-4.779,0.299-5.628,2.558c-0.848,2.261,0.298,4.779,2.558,5.629l4.716,1.768
			l12.449-4.67L162.836,60.954z"/>
	</g>
</g>
<g>
	<g>
		<path fill="#FFFFFF" d="M209.101,63.512c-0.849-2.259-3.371-3.394-5.627-2.558l-34.966,13.113c-2.26,0.848-3.407,3.366-2.56,5.627
			c0.838,2.228,3.324,3.414,5.627,2.558l34.968-13.111C208.803,68.291,209.949,65.772,209.101,63.512z"/>
	</g>
</g>
<g>
	<g>
		<path fill="#FFFFFF" d="M213.75,47.564h-10.411l-7.533-15.067c-0.782-1.564-2.375-2.456-4.017-2.416h-8.635h-8.635
			c-1.642-0.04-3.231,0.852-4.017,2.416l-7.533,15.067h-10.41c-2.415,0-4.372,1.957-4.372,4.371c0,2.414,1.957,4.371,4.372,4.371
			h13.112c1.655,0,3.168-0.936,3.909-2.416l4.831-9.664v16.401l8.742,3.277l8.742-3.277V44.226l4.831,9.664
			c0.74,1.48,2.253,2.416,3.909,2.416h13.112c2.415,0,4.372-1.957,4.372-4.371C218.121,49.521,216.164,47.564,213.75,47.564z"/>
	</g>
</g>
</svg>
